<svg width="18" height="18" viewBox="0 0 18 18" fill="none" xmlns="http://www.w3.org/2000/svg">
<path d="M12.75 5.25L5.25 5.25" stroke="#28303F" stroke-width="1.5" stroke-linecap="round" stroke-linejoin="round"/>
<path d="M12.75 8.25L5.25 8.25" stroke="#28303F" stroke-width="1.5" stroke-linecap="round" stroke-linejoin="round"/>
<path d="M9 11.25L5.25 11.25" stroke="#28303F" stroke-width="1.5" stroke-linecap="round" stroke-linejoin="round"/>
<path d="M13.75 1.5H4.25C3.14543 1.5 2.25 2.39543 2.25 3.5V13.6543C2.25 15.0396 3.62412 16.0053 4.92744 15.5361L5.2392 15.4239C5.72721 15.2482 6.26439 15.269 6.73737 15.4818L8.17927 16.1307C8.70122 16.3655 9.29878 16.3655 9.82073 16.1307L11.2626 15.4818C11.7356 15.269 12.2728 15.2482 12.7608 15.4239L13.0726 15.5361C14.3759 16.0053 15.75 15.0396 15.75 13.6543V3.5C15.75 2.39543 14.8546 1.5 13.75 1.5Z" stroke="#28303F" stroke-width="1.5" stroke-linecap="round"/>
</svg>
