<svg width="24" height="25" viewBox="0 0 24 25" fill="none" xmlns="http://www.w3.org/2000/svg">
<path fill-rule="evenodd" clip-rule="evenodd" d="M21 10.6503V18.4668C21 20.6943 19.2091 22.5 17 22.5H7C4.79086 22.5 3 20.6943 3 18.4668V10.6503C3 9.43937 3.53964 8.2925 4.46986 7.52652L9.46986 3.40935C10.9423 2.19689 13.0577 2.19688 14.5301 3.40935L19.5301 7.52652C20.4604 8.2925 21 9.43937 21 10.6503ZM15.25 17.75V20C15.25 20.5523 14.8023 21 14.25 21H9.75C9.19772 21 8.75 20.5523 8.75 20V17.75C8.75 15.9551 10.2051 14.5 12 14.5C13.7949 14.5 15.25 15.9551 15.25 17.75Z" fill="#1E1E1E"/>
</svg>
