<svg width="18" height="18" viewBox="0 0 18 18" fill="none" xmlns="http://www.w3.org/2000/svg">
<path d="M13.5 10.5L14.2929 9.70711C14.6834 9.31658 14.6834 8.68342 14.2929 8.29289L13.5 7.5" stroke="#28303F" stroke-width="1.5" stroke-linecap="round" stroke-linejoin="round"/>
<path d="M14.25 9L9.75 9M3 12.9497V5.44975M12 12.9497C12 13.7782 11.3284 14.4497 10.5 14.4497H7.5M12 5.44975C12 4.62132 11.3284 3.94975 10.5 3.94975H7.5M3.66795 14.895L5.16795 15.895C6.16478 16.5596 7.5 15.845 7.5 14.647V3.75252C7.5 2.55448 6.16478 1.83989 5.16795 2.50445L3.66795 3.50445C3.25065 3.78265 3 4.25099 3 4.75252V13.647C3 14.1485 3.25065 14.6168 3.66795 14.895Z" stroke="#28303F" stroke-width="1.5" stroke-linecap="round"/>
</svg>
